



<svg width="30" height="33" viewBox="0 0 30 33" fill="none" xmlns="http://www.w3.org/2000/svg">
<path d="M8 20.9733V9.71667H20.3333L21.65 8.25H6.66667V20.9733H8V20.9733Z" fill="black"/>
<path d="M5 6.41666H25V21.0833H26.6667V5.95833C26.6667 5.59366 26.535 5.24392 26.3006 4.98606C26.0661 4.72819 25.7482 4.58333 25.4167 4.58333H4.58333C4.25181 4.58333 3.93387 4.72819 3.69945 4.98606C3.46503 5.24392 3.33333 5.59366 3.33333 5.95833V21.0833H5V6.41666Z" fill="black"/>
<path d="M0.833334 22.9167V26.0333C0.833334 26.6654 1.06161 27.2716 1.46794 27.7186C1.87426 28.1656 2.42537 28.4167 3 28.4167H26.95C27.5246 28.4167 28.0757 28.1656 28.4821 27.7186C28.8884 27.2716 29.1167 26.6654 29.1167 26.0333V22.9167H0.833334ZM27.5 26.0333C27.5 26.1792 27.4473 26.3191 27.3536 26.4222C27.2598 26.5254 27.1326 26.5833 27 26.5833H2.96667C2.83406 26.5833 2.70688 26.5254 2.61311 26.4222C2.51935 26.3191 2.46667 26.1792 2.46667 26.0333V24.3192H10.7583C10.8625 24.5896 11.0364 24.8205 11.2586 24.9834C11.4807 25.1463 11.7414 25.2341 12.0083 25.2358H17.95C18.217 25.2341 18.4776 25.1463 18.6998 24.9834C18.9219 24.8205 19.0958 24.5896 19.2 24.3192H27.5V26.0333Z" fill="black"/>
</svg>
