<svg width="30" height="27" viewBox="0 0 30 27" fill="none" xmlns="http://www.w3.org/2000/svg">
<path d="M26.25 1.6875C26.7473 1.6875 27.2242 1.86529 27.5758 2.18176C27.9275 2.49822 28.125 2.92745 28.125 3.375V16.875C28.125 17.3226 27.9275 17.7518 27.5758 18.0682C27.2242 18.3847 26.7473 18.5625 26.25 18.5625H8.27625C7.28177 18.5627 6.3281 18.9184 5.625 19.5514L1.875 22.9264V3.375C1.875 2.92745 2.07254 2.49822 2.42417 2.18176C2.77581 1.86529 3.25272 1.6875 3.75 1.6875H26.25ZM3.75 0C2.75544 0 1.80161 0.355579 1.09835 0.988515C0.395088 1.62145 0 2.47989 0 3.375L0 24.9632C3.94029e-05 25.1301 0.0551111 25.2933 0.158245 25.4321C0.261379 25.5709 0.407938 25.679 0.579374 25.7428C0.750809 25.8065 0.939414 25.8231 1.12132 25.7904C1.30322 25.7576 1.47024 25.6771 1.60125 25.5589L6.95063 20.7444C7.30217 20.4279 7.77901 20.2501 8.27625 20.25H26.25C27.2446 20.25 28.1984 19.8944 28.9016 19.2615C29.6049 18.6285 30 17.7701 30 16.875V3.375C30 2.47989 29.6049 1.62145 28.9016 0.988515C28.1984 0.355579 27.2446 0 26.25 0L3.75 0Z" fill="#F96161"/>
<path d="M9.375 10.125C9.375 10.5726 9.17746 11.0018 8.82582 11.3182C8.47419 11.6347 7.99728 11.8125 7.5 11.8125C7.00272 11.8125 6.52581 11.6347 6.17417 11.3182C5.82254 11.0018 5.625 10.5726 5.625 10.125C5.625 9.67745 5.82254 9.24823 6.17417 8.93176C6.52581 8.61529 7.00272 8.4375 7.5 8.4375C7.99728 8.4375 8.47419 8.61529 8.82582 8.93176C9.17746 9.24823 9.375 9.67745 9.375 10.125V10.125ZM16.875 10.125C16.875 10.5726 16.6775 11.0018 16.3258 11.3182C15.9742 11.6347 15.4973 11.8125 15 11.8125C14.5027 11.8125 14.0258 11.6347 13.6742 11.3182C13.3225 11.0018 13.125 10.5726 13.125 10.125C13.125 9.67745 13.3225 9.24823 13.6742 8.93176C14.0258 8.61529 14.5027 8.4375 15 8.4375C15.4973 8.4375 15.9742 8.61529 16.3258 8.93176C16.6775 9.24823 16.875 9.67745 16.875 10.125ZM24.375 10.125C24.375 10.5726 24.1775 11.0018 23.8258 11.3182C23.4742 11.6347 22.9973 11.8125 22.5 11.8125C22.0027 11.8125 21.5258 11.6347 21.1742 11.3182C20.8225 11.0018 20.625 10.5726 20.625 10.125C20.625 9.67745 20.8225 9.24823 21.1742 8.93176C21.5258 8.61529 22.0027 8.4375 22.5 8.4375C22.9973 8.4375 23.4742 8.61529 23.8258 8.93176C24.1775 9.24823 24.375 9.67745 24.375 10.125Z" fill="#F96161"/>
</svg>
