<svg width="61" height="61" viewBox="0 0 61 61" fill="none" xmlns="http://www.w3.org/2000/svg">
<path d="M16.2667 38.7689V17.9611H41.3444L44.0217 15.25H13.5556V38.7689H16.2667V38.7689Z" fill="black"/>
<path d="M10.1667 11.8611H50.8333V38.9722H54.2222V11.0139C54.2222 10.3398 53.9544 9.69332 53.4778 9.21667C53.0011 8.74001 52.3546 8.47223 51.6806 8.47223H9.31944C8.64535 8.47223 7.99887 8.74001 7.52221 9.21667C7.04556 9.69332 6.77778 10.3398 6.77778 11.0139V38.9722H10.1667V11.8611Z" fill="black"/>
<path d="M1.69444 42.3611V48.1222C1.69444 49.2907 2.1586 50.4112 2.9848 51.2374C3.811 52.0636 4.93157 52.5278 6.1 52.5278H54.7983C55.9668 52.5278 57.0873 52.0636 57.9135 51.2374C58.7397 50.4112 59.2039 49.2907 59.2039 48.1222V42.3611H1.69444ZM55.9167 48.1222C55.9167 48.3919 55.8096 48.6505 55.6189 48.8411C55.4282 49.0318 55.1696 49.1389 54.9 49.1389H6.03222C5.76259 49.1389 5.50399 49.0318 5.31333 48.8411C5.12267 48.6505 5.01556 48.3919 5.01556 48.1222V44.9536H21.8753C22.0871 45.4534 22.4407 45.8803 22.8924 46.1814C23.3441 46.4825 23.8741 46.6448 24.4169 46.6481H36.4983C37.0412 46.6448 37.5712 46.4825 38.0229 46.1814C38.4746 45.8803 38.8282 45.4534 39.04 44.9536H55.9167V48.1222Z" fill="black"/>
</svg>
