<svg width="100" height="100" viewBox="0 0 100 100" fill="none" xmlns="http://www.w3.org/2000/svg">
<path d="M12.5 75H87.5V20.8333C87.5 19.7283 87.061 18.6685 86.2796 17.8871C85.4982 17.1057 84.4384 16.6667 83.3333 16.6667H16.6667C15.5616 16.6667 14.5018 17.1057 13.7204 17.8871C12.939 18.6685 12.5 19.7283 12.5 20.8333V75ZM8.33334 83.3333H91.6667C95.8333 83.3333 95.8333 79.1667 95.8333 79.1667H4.16667C4.16667 79.1667 4.16667 83.3333 8.33334 83.3333Z" stroke="black" stroke-width="2"/>
<path d="M61.1096 47.8125C62.2549 48.9683 63.2137 50.2937 63.9521 51.7417C64.1246 52.078 64.156 52.4688 64.0394 52.8281C63.9227 53.1875 63.6676 53.4859 63.33 53.6579C62.9925 53.8298 62.6003 53.8611 62.2396 53.7448C61.8789 53.6286 61.5793 53.3744 61.4068 53.0381C60.8042 51.8552 60.0222 50.7719 59.0882 49.8264C57.6916 48.4346 55.9839 47.3923 54.105 46.7849C52.226 46.1775 50.2294 46.0224 48.2787 46.3323C46.328 46.6421 44.4787 47.4081 42.8825 48.5675C41.2863 49.7268 39.9885 51.2465 39.0955 53.002C39.0138 53.1737 38.8983 53.3272 38.7561 53.4537C38.6138 53.5802 38.4476 53.677 38.2672 53.7385C38.0868 53.8 37.8958 53.8249 37.7056 53.8117C37.5154 53.7985 37.3298 53.7475 37.1596 53.6618C36.9895 53.576 36.8383 53.4572 36.715 53.3123C36.5917 53.1674 36.4987 52.9994 36.4416 52.8182C36.3844 52.6369 36.3642 52.4461 36.3823 52.257C36.4003 52.0679 36.4561 51.8843 36.5464 51.717C37.6432 49.5599 39.2374 47.6925 41.1984 46.2678C43.1595 44.843 45.4314 43.9016 47.8281 43.5206C50.2248 43.1397 52.678 43.33 54.9866 44.076C57.2952 44.822 59.3936 46.1025 61.1096 47.8125V47.8125ZM57.1049 53.6398C57.9585 54.4883 58.6596 55.5323 59.1473 56.6427C59.2226 56.8139 59.2633 56.9983 59.2671 57.1852C59.2709 57.3721 59.2377 57.558 59.1694 57.7321C59.1011 57.9063 58.9991 58.0653 58.8691 58.2002C58.7391 58.335 58.5838 58.443 58.4119 58.5181C58.24 58.5931 58.055 58.6337 57.8674 58.6374C57.6797 58.6412 57.4932 58.6082 57.3184 58.5401C57.1436 58.4721 56.984 58.3704 56.8487 58.2409C56.7133 58.1114 56.6049 57.9566 56.5296 57.7854C56.1829 56.9919 55.6928 56.2687 55.0836 55.6519C54.4481 55.0187 53.6937 54.5164 52.8634 54.1738C52.0331 53.8311 51.1432 53.6547 50.2445 53.6547C49.3458 53.6547 48.4559 53.8311 47.6256 54.1738C46.7953 54.5164 46.0409 55.0187 45.4054 55.6519C44.8148 56.2403 44.3347 56.9597 43.9822 57.7588C43.9111 57.9358 43.805 58.0967 43.6703 58.232C43.5355 58.3674 43.3748 58.4744 43.1978 58.5467C43.0208 58.619 42.831 58.6551 42.6396 58.653C42.4483 58.6508 42.2594 58.6104 42.084 58.5341C41.9087 58.4578 41.7505 58.3472 41.6189 58.2088C41.4872 58.0705 41.3848 57.9072 41.3177 57.7287C41.2506 57.5502 41.2202 57.36 41.2282 57.1696C41.2363 56.9791 41.2826 56.7922 41.3646 56.6199C41.846 55.5097 42.5316 54.4989 43.3859 53.6398C45.2052 51.8273 47.6726 50.8091 50.2454 50.8091C52.8182 50.8091 55.2857 51.8273 57.1049 53.6398V53.6398ZM66.2592 43.1222C67.2308 44.0883 68.1453 45.1912 68.9417 46.3433C69.0537 46.4969 69.1338 46.6713 69.1773 46.8561C69.2207 47.041 69.2266 47.2327 69.1945 47.4199C69.1625 47.607 69.0932 47.7859 68.9907 47.946C68.8882 48.1061 68.7547 48.2442 68.5978 48.352C68.441 48.4599 68.2641 48.5355 68.0775 48.5742C67.891 48.6129 67.6985 48.6141 67.5115 48.5776C67.3245 48.5412 67.1466 48.4678 66.9885 48.3618C66.8304 48.2558 66.6951 48.1194 66.5907 47.9606C65.8927 46.9504 65.1052 46.0045 64.2378 45.1342C56.4648 37.3898 43.8622 37.3898 36.0892 45.1342C35.2852 45.9352 34.4889 46.9071 33.7611 47.9511C33.5413 48.2518 33.2122 48.4549 32.844 48.5169C32.4759 48.5789 32.098 48.4948 31.7913 48.2827C31.4846 48.0706 31.2733 47.7473 31.2028 47.3821C31.1323 47.0168 31.2081 46.6385 31.4139 46.3282C32.2332 45.1513 33.1362 44.0504 34.0697 43.1203C42.9573 34.2654 57.3698 34.2654 66.2592 43.1203V43.1222ZM52.1858 58.6111C52.7219 59.1452 53.0231 59.8696 53.0231 60.625C53.0231 61.3804 52.7219 62.1048 52.1858 62.6389C51.6497 63.1731 50.9226 63.4731 50.1645 63.4731C49.4063 63.4731 48.6792 63.1731 48.1431 62.6389C47.607 62.1048 47.3058 61.3804 47.3058 60.625C47.3058 59.8696 47.607 59.1452 48.1431 58.6111C48.6792 58.0769 49.4063 57.7769 50.1645 57.7769C50.9226 57.7769 51.6497 58.0769 52.1858 58.6111Z" fill="#F96353"/>
</svg>
