<svg width="92" height="87" viewBox="0 0 92 87" fill="none" xmlns="http://www.w3.org/2000/svg">
<path d="M57.5 14.5C65.6333 14.5 73.4335 17.5553 79.1846 22.9939C84.9357 28.4325 88.1667 35.8087 88.1667 43.5C88.1667 51.1913 84.9357 58.5675 79.1846 64.0061C73.4335 69.4447 65.6333 72.5 57.5 72.5C49.3667 72.5 41.5665 69.4447 35.8154 64.0061C30.0643 58.5675 26.8333 51.1913 26.8333 43.5C26.8333 35.8087 30.0643 28.4325 35.8154 22.9939C41.5665 17.5553 49.3667 14.5 57.5 14.5V14.5ZM57.5 21.75C51.4 21.75 45.5499 24.0415 41.2366 28.1204C36.9232 32.1993 34.5 37.7315 34.5 43.5C34.5 49.2685 36.9232 54.8007 41.2366 58.8796C45.5499 62.9585 51.4 65.25 57.5 65.25C63.6 65.25 69.4501 62.9585 73.7635 58.8796C78.0768 54.8007 80.5 49.2685 80.5 43.5C80.5 37.7315 78.0768 32.1993 73.7635 28.1204C69.4501 24.0415 63.6 21.75 57.5 21.75ZM53.6667 29H59.4167V42.7025L68.3483 51.1487L64.285 54.9913L53.6667 44.95V29ZM7.66668 65.25C6.65001 65.25 5.67499 64.8681 4.9561 64.1883C4.23721 63.5084 3.83334 62.5864 3.83334 61.625C3.83334 60.6636 4.23721 59.7416 4.9561 59.0617C5.67499 58.3819 6.65001 58 7.66668 58H22.3483C23.5367 60.5737 25.07 63.0025 26.8333 65.25H7.66668ZM11.5 47.125C10.4833 47.125 9.50832 46.7431 8.78943 46.0633C8.07054 45.3834 7.66668 44.4614 7.66668 43.5C7.66668 42.5386 8.07054 41.6166 8.78943 40.9367C9.50832 40.2569 10.4833 39.875 11.5 39.875H19.3583L19.1667 43.5L19.3583 47.125H11.5ZM15.3333 29C14.3167 29 13.3417 28.6181 12.6228 27.9383C11.9039 27.2584 11.5 26.3364 11.5 25.375C11.5 24.4136 11.9039 23.4916 12.6228 22.8117C13.3417 22.1319 14.3167 21.75 15.3333 21.75H26.8333C25.07 23.9975 23.5367 26.4263 22.3483 29H15.3333Z" fill="#F96353"/>
</svg>
