<svg width="150" height="150" viewBox="0 0 150 150" fill="none" xmlns="http://www.w3.org/2000/svg">
<path d="M15 41.25C15 38.2663 16.1853 35.4048 18.295 33.295C20.4048 31.1853 23.2663 30 26.25 30H123.75C126.734 30 129.595 31.1853 131.705 33.295C133.815 35.4048 135 38.2663 135 41.25V66.795C132.636 65.7736 130.073 65.2969 127.5 65.4V41.25C127.5 40.2554 127.105 39.3016 126.402 38.5984C125.698 37.8951 124.745 37.5 123.75 37.5H26.25C25.2554 37.5 24.3016 37.8951 23.5984 38.5984C22.8951 39.3016 22.5 40.2554 22.5 41.25V108.75C22.5 109.745 22.8951 110.698 23.5984 111.402C24.3016 112.105 25.2554 112.5 26.25 112.5H45V101.25C45 98.2663 46.1853 95.4048 48.295 93.295C50.4048 91.1853 53.2663 90 56.25 90H93.75C96.7337 90 99.5952 91.1853 101.705 93.295C103.815 95.4048 105 98.2663 105 101.25V109.305C97.2225 109.553 93.5025 115.23 91.305 118.575C90.945 119.123 90.63 119.61 90.33 120H26.25C23.2663 120 20.4048 118.815 18.295 116.705C16.1853 114.595 15 111.734 15 108.75V41.25ZM93.75 63.75C93.75 68.7228 91.7746 73.4919 88.2583 77.0083C84.7419 80.5246 79.9728 82.5 75 82.5C70.0272 82.5 65.2581 80.5246 61.7417 77.0083C58.2254 73.4919 56.25 68.7228 56.25 63.75C56.25 58.7772 58.2254 54.0081 61.7417 50.4917C65.2581 46.9754 70.0272 45 75 45C79.9728 45 84.7419 46.9754 88.2583 50.4917C91.7746 54.0081 93.75 58.7772 93.75 63.75V63.75ZM118.763 84.4875L121.755 77.43C123.157 74.115 126.518 72.315 129.818 73.005L130.522 73.185L134.272 74.385C137.992 75.5775 140.835 78.7575 141.757 82.755C143.94 92.2575 141.322 103.83 133.89 117.465C126.472 131.085 118.35 139.268 109.507 142.028C106.072 143.1 102.383 142.328 99.6075 139.995L98.88 139.32L96.03 136.462C94.8327 135.23 94.0592 133.648 93.8219 131.946C93.5845 130.244 93.8956 128.511 94.71 126.998L95.13 126.307L99.42 120.007C100.2 118.818 101.319 117.89 102.632 117.343C103.945 116.797 105.391 116.656 106.785 116.94L107.535 117.143L115.463 119.79C118.62 117.39 121.26 114.39 123.367 110.753C125.175 107.64 126.368 104.49 126.915 101.295L127.14 99.69L120.547 93.4275C119.483 92.3906 118.727 91.0795 118.362 89.6394C117.996 88.1993 118.036 86.6862 118.477 85.2675L118.755 84.4875H118.763Z" fill="#F96353"/>
</svg>
