<svg width="115" height="113" viewBox="0 0 115 113" fill="none" xmlns="http://www.w3.org/2000/svg">
<path d="M59.2969 49.4375H71.875V42.375H64.6875V38.8438H57.5V42.5516C55.3165 42.9872 53.3757 44.2045 52.0542 45.9672C50.7328 47.7299 50.125 49.9121 50.3489 52.0903C50.5729 54.2686 51.6125 56.2873 53.266 57.7547C54.9194 59.2221 57.0688 60.0335 59.2969 60.0312H62.8906C63.3672 60.0312 63.8242 60.2173 64.1612 60.5484C64.4982 60.8795 64.6875 61.3286 64.6875 61.7969C64.6875 62.2651 64.4982 62.7142 64.1612 63.0454C63.8242 63.3765 63.3672 63.5625 62.8906 63.5625H50.3125V70.625H57.5V74.1562H64.6875V70.4484C66.871 70.0128 68.8118 68.7955 70.1332 67.0328C71.4547 65.2701 72.0624 63.0879 71.8385 60.9097C71.6146 58.7315 70.575 56.7127 68.9215 55.2453C67.268 53.7779 65.1186 52.9665 62.8906 52.9688H59.2969C58.8203 52.9688 58.3633 52.7827 58.0263 52.4516C57.6893 52.1205 57.5 51.6714 57.5 51.2031C57.5 50.7349 57.6893 50.2858 58.0263 49.9546C58.3633 49.6235 58.8203 49.4375 59.2969 49.4375Z" fill="#F96353"/>
<path d="M104.219 45.9062H96.9594C96.8561 43.1163 96.1713 40.3769 94.9473 37.8574C93.7234 35.338 91.9864 33.092 89.8438 31.2586V17.6563C89.8438 17.0005 89.6579 16.3576 89.307 15.7998C88.9562 15.2419 88.4541 14.7911 87.8572 14.4978C87.2602 14.2045 86.592 14.0804 85.9273 14.1393C85.2626 14.1982 84.6277 14.4378 84.0937 14.8313L70.6783 24.7188H53.9062C34.1047 24.7188 19.8986 36.1635 18.1556 52.9688H17.9688C17.0156 52.9688 16.1015 52.5967 15.4276 51.9345C14.7536 51.2722 14.375 50.374 14.375 49.4375V42.375H7.1875V49.4375C7.19035 52.2463 8.32715 54.9392 10.3484 56.9253C12.3697 58.9114 15.1103 60.0284 17.9688 60.0312H18.2203C18.7415 64.6617 20.273 69.1271 22.7104 73.123C25.1477 77.1189 28.4336 80.5512 32.3438 83.1857V95.3438C32.3438 96.2803 32.7224 97.1785 33.3963 97.8407C34.0703 98.503 34.9844 98.875 35.9375 98.875H50.3125C51.2656 98.875 52.1797 98.503 52.8537 97.8407C53.5276 97.1785 53.9062 96.2803 53.9062 95.3438V88.2812H64.6875V95.3438C64.6875 96.2803 65.0661 97.1785 65.7401 97.8407C66.414 98.503 67.3281 98.875 68.2812 98.875H82.6562C83.6094 98.875 84.5235 98.503 85.1974 97.8407C85.8714 97.1785 86.25 96.2803 86.25 95.3438V83.4682C88.8459 82.2589 91.1157 80.4661 92.8757 78.2349C94.6357 76.0037 95.8364 73.3968 96.3808 70.625H104.219C105.172 70.625 106.086 70.253 106.76 69.5907C107.434 68.9285 107.812 68.0303 107.812 67.0938V49.4375C107.812 48.501 107.434 47.6028 106.76 46.9405C106.086 46.2783 105.172 45.9062 104.219 45.9062ZM100.625 63.5625H90.2894C89.1933 73.284 87.3281 75.8689 79.0625 78.7998V91.8125H71.875V81.2188H46.7188V91.8125H39.5312V79.0223C35.204 76.9994 31.5534 73.8063 29.0073 69.8172C26.4613 65.8282 25.1254 61.2086 25.1562 56.5C25.1563 39.4264 39.5959 31.7813 53.9062 31.7813H73.0717L82.6562 24.7188V34.5215C91.3459 41.0896 89.5311 45.7721 89.9084 52.9688H100.625V63.5625Z" fill="black"/>
</svg>
