<svg width="150" height="152" viewBox="0 0 150 152" fill="none" xmlns="http://www.w3.org/2000/svg">
<path d="M48.4375 120.333C44.0607 120.334 39.8487 118.642 36.6606 115.603C33.4726 112.564 31.5486 108.408 31.2813 103.981L31.25 102.917V95C27.977 95.0005 24.7609 94.1329 21.9215 92.4834C19.082 90.8339 16.7181 88.4599 15.0649 85.5975C13.4116 82.7352 12.5265 79.4841 12.4976 76.1676C12.4687 72.8512 13.2971 69.5848 14.9003 66.6933C16.5034 63.8018 18.8256 61.386 21.6359 59.6859C24.4462 57.9859 27.6467 57.0609 30.9191 57.0029C34.1916 56.9449 37.422 57.756 40.2893 59.3555C43.1565 60.9549 45.5606 63.2871 47.2625 66.12C50.5516 64.5192 54.1193 63.5895 57.7625 63.384L59.375 63.3333H84.375L85.925 63.3777L87.4563 63.5043L88.25 63.612L88.9375 62.5543L89.7563 61.427L78.65 50.1727C74.275 45.7393 73.8188 38.8487 77.275 33.896L77.9188 33.0473L78.65 32.2367C83.275 27.55 90.6375 27.2967 95.5563 31.4957L96.35 32.2367L130.175 66.519C133.601 69.9909 135.958 74.3967 136.958 79.2007C137.959 84.0047 137.56 88.9998 135.811 93.5784C134.061 98.1571 131.037 102.122 127.104 104.991C123.172 107.86 118.502 109.509 113.663 109.738L112.256 109.763L111.119 109.719L110.956 110.124C109.751 112.81 107.893 115.141 105.556 116.9C103.219 118.66 100.479 119.788 97.5938 120.181L96.3938 120.302L95.3063 120.333H48.4375V120.333ZM89.7188 38.9563C89.1656 38.3906 88.4232 38.0559 87.6382 38.0183C86.8532 37.9806 86.0829 38.2429 85.4795 38.7532C84.8762 39.2634 84.4838 39.9846 84.38 40.7739C84.2761 41.5633 84.4684 42.3634 84.9188 43.016L85.2813 43.4593L102.831 61.2433L98.8438 65.3093C97.5313 66.6393 96.4375 68.1213 95.575 69.7173L94.9688 70.9333L93.3063 74.632L89.4438 73.5363C88.2111 73.1861 86.9461 72.9653 85.6688 72.8777L84.3688 72.8333H59.375C55 72.8333 50.9813 74.3533 47.7938 76.8867L46.9 77.6467L45.8688 78.66L45.2875 79.2933L44.5938 80.142L43.8375 81.1997L43.575 81.605C43.3188 82.004 43.075 82.422 42.8563 82.8463L42.4938 83.5557L42.1063 84.4233L41.8938 84.9553L41.575 85.8547L41.2313 87.02C41.0707 87.6399 40.9413 88.2677 40.8438 88.901L40.775 89.4267L40.6625 90.6237L40.625 91.8333V102.917C40.625 107.021 43.7 110.39 47.6375 110.795L48.4375 110.833H75.0063V109.275C75.0073 107.316 74.2916 105.427 72.9975 103.971C71.7034 102.516 69.9228 101.599 68 101.397L67.2 101.359H60.95C59.7539 101.371 58.5984 100.919 57.7201 100.097C56.8418 99.2737 56.3072 98.1418 56.2257 96.9325C56.1442 95.7232 56.5221 94.528 57.2819 93.5918C58.0416 92.6556 59.1258 92.0492 60.3125 91.8967L60.95 91.8587H67.2C71.5768 91.8584 75.7888 93.5502 78.9769 96.589C82.1649 99.6277 84.0889 103.784 84.3563 108.211L84.3875 109.275L84.3813 110.833H95.3063C99.0063 110.833 102.15 108.211 102.925 104.658L103.05 103.886L103.675 98.5657L108.813 99.8197C112.032 100.614 115.418 100.35 118.481 99.0666C121.543 97.783 124.123 95.546 125.849 92.6788C127.574 89.8117 128.355 86.4629 128.079 83.1164C127.803 79.7699 126.484 76.599 124.312 74.062L123.55 73.2387L89.7188 38.9563V38.9563ZM31.25 66.5063C28.8524 66.5216 26.5517 67.4672 24.8209 69.1486C23.0902 70.83 22.061 73.1195 21.9449 75.5463C21.8289 77.9731 22.6348 80.3527 24.197 82.1958C25.7591 84.039 27.9588 85.2055 30.3438 85.4557L31.25 85.4937L31.9625 85.462L31.9938 85.3037C32.2125 84.3537 32.475 83.4353 32.7813 82.5297L33.3875 80.9147L34.05 79.42L34.4063 78.7043L35.2188 77.2223L35.7688 76.3357L36.675 75.0057L37.1375 74.385L37.8125 73.5363L38.6188 72.6053L39.5563 71.611C38.2438 69.0777 35.8688 67.241 33.075 66.6837L32.1313 66.5443L31.25 66.5V66.5063Z" fill="#F96353"/>
</svg>
